<?xml version="1.0" encoding="UTF-8"?>
<svg version="1.1" xmlns="http://www.w3.org/2000/svg" width="222" height="75">
<path d="M0 0 C8.97224388 6.32551517 14.44410863 14.65414173 16.4765625 25.40234375 C17.97085537 35.82549771 15.52601512 46.38064982 9.78125 55.21875 C2.70892752 63.72221043 -6.17441988 68.75577325 -17.07421875 69.9140625 C-27.52161435 70.37537607 -36.04276031 67.87585203 -44.08203125 61.109375 C-51.31593727 54.07408778 -56.24080093 45.04083546 -56.49926758 34.85888672 C-56.59915647 23.77001599 -54.89969525 14.11404242 -47.20703125 5.609375 C-34.5276035 -7.25651493 -15.3368085 -9.6635466 0 0 Z M-41.20703125 8.609375 C-43.49212813 11.46306406 -45.38422467 14.44431994 -47.20703125 17.609375 C-47.82578125 18.66125 -48.44453125 19.713125 -49.08203125 20.796875 C-51.91344097 30.39220793 -50.93029788 39.83513151 -46.20703125 48.609375 C-45.54703125 49.599375 -44.88703125 50.589375 -44.20703125 51.609375 C-43.54703125 51.609375 -42.88703125 51.609375 -42.20703125 51.609375 C-41.96855469 52.20234375 -41.73007812 52.7953125 -41.484375 53.40625 C-39.93692926 56.07523898 -38.34507638 57.18463629 -35.76953125 58.859375 C-34.98707031 59.38015625 -34.20460938 59.9009375 -33.3984375 60.4375 C-31.18029377 61.84515849 -31.18029377 61.84515849 -28.20703125 61.609375 C-28.15318604 59.31796214 -28.11431038 57.02619312 -28.08203125 54.734375 C-28.05882813 53.45820312 -28.035625 52.18203125 -28.01171875 50.8671875 C-27.85061601 47.52344162 -27.85061601 47.52344162 -30.20703125 45.609375 C-30.3521082 42.86451907 -30.39355548 40.22456957 -30.33203125 37.484375 C-30.32300781 36.73027344 -30.31398438 35.97617187 -30.3046875 35.19921875 C-30.28109995 33.33580246 -30.24522844 31.47254907 -30.20703125 29.609375 C-27.89703125 29.939375 -25.58703125 30.269375 -23.20703125 30.609375 C-23.20703125 35.889375 -23.20703125 41.169375 -23.20703125 46.609375 C-24.19703125 47.104375 -24.19703125 47.104375 -25.20703125 47.609375 C-25.31841284 53.06707311 -25.12361106 58.22446859 -24.20703125 63.609375 C-20.20448669 63.70118634 -20.20448669 63.70118634 -16.20703125 63.609375 C-14.22742616 61.62976991 -14.97708725 57.93190666 -14.95703125 55.234375 C-14.93640625 54.54859375 -14.91578125 53.8628125 -14.89453125 53.15625 C-14.7758168 49.19732039 -14.7758168 49.19732039 -16.703125 45.91015625 C-17.19941406 45.48089844 -17.69570313 45.05164062 -18.20703125 44.609375 C-18.5703125 42.48828125 -18.5703125 42.48828125 -18.51953125 40.171875 C-18.51566406 39.41003906 -18.51179688 38.64820313 -18.5078125 37.86328125 C-18.18096985 35.41408373 -17.42657726 33.74236583 -16.20703125 31.609375 C-13.89453125 31.296875 -13.89453125 31.296875 -11.20703125 31.609375 C-8.95798976 33.93338454 -8.2188289 35.63185545 -8.1796875 38.875 C-8.73523921 45.13758296 -8.73523921 45.13758296 -11.20703125 47.609375 C-11.45081008 50.96681612 -11.45081008 50.96681612 -11.33203125 54.734375 C-11.31398437 56.01570313 -11.2959375 57.29703125 -11.27734375 58.6171875 C-11.25414062 59.60460937 -11.2309375 60.59203125 -11.20703125 61.609375 C-4.08017426 60.15491439 0.331176 57.11673816 4.53125 51.1328125 C8.69163155 44.40073924 9.98449515 39.71273872 10.04296875 31.796875 C10.06359375 31.11044922 10.08421875 30.42402344 10.10546875 29.71679688 C10.1694003 21.26984049 6.31621498 14.76792419 0.79296875 8.609375 C-6.30459618 2.16158714 -13.82730275 0.04980424 -23.3125 0.32421875 C-30.1534493 0.99815842 -36.21151352 3.87184176 -41.20703125 8.609375 Z M11.79296875 24.609375 C12.79296875 27.609375 12.79296875 27.609375 12.79296875 27.609375 Z M-53.20703125 25.609375 C-52.20703125 27.609375 -52.20703125 27.609375 -52.20703125 27.609375 Z M11.79296875 35.609375 C12.79296875 38.609375 12.79296875 38.609375 12.79296875 38.609375 Z " fill="#968356" transform="translate(56.20703125,5.390625)"/>
<path d="M0 0 C3.68734775 -0.08776185 7.37442347 -0.14064603 11.0625 -0.1875 C12.62000977 -0.22520508 12.62000977 -0.22520508 14.20898438 -0.26367188 C21.7813836 -0.33578996 26.74537553 0.33712543 32.75 5.25 C37.53256689 11.09535954 38.51896713 15.93060835 38.28515625 23.3515625 C37.60563997 29.66268627 34.94485513 33.95420944 30 38 C23.72889739 41.49138823 18.13054974 41.35860735 11.0625 41.1875 C9.99708984 41.17396484 8.93167969 41.16042969 7.83398438 41.14648438 C5.22212412 41.11134724 2.61133366 41.06215184 0 41 C0 40.01 0 39.02 0 38 C2.97 37.505 2.97 37.505 6 37 C6 26.11 6 15.22 6 4 C3.03 3.505 3.03 3.505 0 3 C0 2.01 0 1.02 0 0 Z M12 4 C12 15.22 12 26.44 12 38 C21.77586972 37.9245378 21.77586972 37.9245378 28 33 C31.41827089 27.22430091 31.85558263 21.62601213 31 15 C29.74038399 10.87577337 28.01253084 7.95297021 24.875 5 C20.93316349 3.45246563 20.93316349 3.45246563 12 4 Z " fill="#FFFFFF" transform="translate(84,8)"/>
<path d="M0 0 C9.9 0 19.8 0 30 0 C30.96070434 2.88211302 31.10581883 4.69850044 31.0625 7.6875 C31.05347656 8.49574219 31.04445312 9.30398437 31.03515625 10.13671875 C31.02355469 10.75160156 31.01195312 11.36648437 31 12 C29.68 12 28.36 12 27 12 C26.34 9.69 25.68 7.38 25 5 C20.71 4.67 16.42 4.34 12 4 C12 8.62 12 13.24 12 18 C14.64 18 17.28 18 20 18 C20.33 16.35 20.66 14.7 21 13 C21.99 13 22.98 13 24 13 C24 17.95 24 22.9 24 28 C23.01 28 22.02 28 21 28 C20.67 26.02 20.34 24.04 20 22 C17.36 22 14.72 22 12 22 C12 26.95 12 31.9 12 37 C16.95 37 21.9 37 27 37 C27.33 34.69 27.66 32.38 28 30 C29.32 30 30.64 30 32 30 C32 33.63 32 37.26 32 41 C21.44 41 10.88 41 0 41 C0 40.01 0 39.02 0 38 C1.98 37.505 1.98 37.505 4 37 C4.80395025 32.77717482 5.11811363 28.80386236 5.09765625 24.5078125 C5.09443359 23.30898438 5.09121094 22.11015625 5.08789062 20.875 C5.07951172 19.6375 5.07113281 18.4 5.0625 17.125 C5.05798828 15.86429688 5.05347656 14.60359375 5.04882812 13.3046875 C5.0370796 10.20307614 5.02065167 7.10156275 5 4 C3.35 3.67 1.7 3.34 0 3 C0 2.01 0 1.02 0 0 Z " fill="#FFFFFF" transform="translate(123,8)"/>
<path d="M0 0 C9.9 0 19.8 0 30 0 C30.33 3.96 30.66 7.92 31 12 C29.35 12 27.7 12 26 12 C25.67 9.36 25.34 6.72 25 4 C20.71 4 16.42 4 12 4 C11.67 8.62 11.34 13.24 11 18 C13.97 18 16.94 18 20 18 C20 16.35 20 14.7 20 13 C21.32 13 22.64 13 24 13 C24 17.95 24 22.9 24 28 C22.68 28 21.36 28 20 28 C20 26.02 20 24.04 20 22 C17.03 22 14.06 22 11 22 C11.33 26.62 11.66 31.24 12 36 C16.62 36 21.24 36 26 36 C26.66 34.02 27.32 32.04 28 30 C29.32 30 30.64 30 32 30 C32.07622858 33.96388638 31.9681648 37.1273408 31 41 C20.77 41 10.54 41 0 41 C0 40.01 0 39.02 0 38 C1.98 37.505 1.98 37.505 4 37 C4.33 26.11 4.66 15.22 5 4 C3.35 3.67 1.7 3.34 0 3 C0 2.01 0 1.02 0 0 Z " fill="#FFFFFF" transform="translate(157,8)"/>
<path d="M0 0 C1.17755859 -0.00773438 1.17755859 -0.00773438 2.37890625 -0.015625 C4.4375 0.25 4.4375 0.25 6.4375 2.25 C7.571875 2.53875 8.70625 2.8275 9.875 3.125 C13.4375 4.25 13.4375 4.25 15.4375 6 C16.84322798 9.16288794 16.49912129 10.99436136 15.4375 14.25 C14.7775 14.53875 14.1175 14.8275 13.4375 15.125 C12.4475 15.681875 12.4475 15.681875 11.4375 16.25 C10.74740225 18.94360735 10.61781255 21.45515553 10.4375 24.25 C5.9996439 25.36165232 1.66793614 25.36527763 -2.875 25.3125 C-3.61556641 25.30798828 -4.35613281 25.30347656 -5.11914062 25.29882812 C-6.93362899 25.28712175 -8.74807534 25.26918898 -10.5625 25.25 C-10.8925 21.95 -11.2225 18.65 -11.5625 15.25 C-12.8825 14.92 -14.2025 14.59 -15.5625 14.25 C-16.3125 11 -16.3125 11 -16.5625 7.25 C-14.61048157 4.39704999 -13.35751499 3.44390609 -10 2.625 C-9.195625 2.50125 -8.39125 2.3775 -7.5625 2.25 C-4.42838698 0.16059132 -3.58799528 -0.02364412 0 0 Z " fill="#978251" transform="translate(36.5625,8.75)"/>
<path d="M0 0 C3.35399849 -0.0878954 6.7076964 -0.14068879 10.0625 -0.1875 C11.00544922 -0.21263672 11.94839844 -0.23777344 12.91992188 -0.26367188 C19.95534701 -0.3372129 24.96396058 0.3531964 30.4375 5.125 C32.62821413 9.155914 32.65330588 12.50852209 32 17 C30.60544306 20.77350702 29.4095139 21.75763463 25.9375 23.8125 C21.35339055 25.56351177 16.84283209 25.1990205 12 25 C12 28.96 12 32.92 12 37 C13.98 37.33 15.96 37.66 18 38 C18 38.99 18 39.98 18 41 C12.06 41 6.12 41 0 41 C0 40.01 0 39.02 0 38 C2.97 37.505 2.97 37.505 6 37 C6 26.11 6 15.22 6 4 C3.03 3.505 3.03 3.505 0 3 C0 2.01 0 1.02 0 0 Z M12 4 C12 9.94 12 15.88 12 22 C17.90558066 21.62270467 17.90558066 21.62270467 23.5 19.9375 C25.83331129 16.92363958 26.20223118 13.7051642 26 10 C24.66048669 7.00204165 23.9444025 5.47220125 21 4 C18.03 4 15.06 4 12 4 Z " fill="#FFFFFF" transform="translate(190,8)"/>
<path d="M0 0 C2.31 0.33 4.62 0.66 7 1 C7.33 2.98 7.66 4.96 8 7 C7.01 7 6.02 7 5 7 C5 8.65 5 10.3 5 12 C3.02 12.66 1.04 13.32 -1 14 C-1.18451025 4.58997722 -1.18451025 4.58997722 0 0 Z " fill="#9A8759" transform="translate(26,35)"/>
<path d="M0 0 C2.33944736 0.28730055 4.6739143 0.61936779 7 1 C8.00335818 4.12155879 7.80670923 5.87400172 7 9 C7.33 9.99 7.66 10.98 8 12 C4.125 11.125 4.125 11.125 3 10 C2.67 10.66 2.34 11.32 2 12 C1.01 12 0.02 12 -1 12 C-1.02687279 10.18757948 -1.04633715 8.37504767 -1.0625 6.5625 C-1.07410156 5.55316406 -1.08570312 4.54382813 -1.09765625 3.50390625 C-1 1 -1 1 0 0 Z M2 3 C2 3.66 2 4.32 2 5 C2.99 5 3.98 5 5 5 C5 4.34 5 3.68 5 3 C4.01 3 3.02 3 2 3 Z " fill="#947F57" transform="translate(85,60)"/>
<path d="M0 0 C0.66 0.33 1.32 0.66 2 1 C2 3.97 2 6.94 2 10 C2.99 9.67 3.98 9.34 5 9 C5.33 6.36 5.66 3.72 6 1 C6.99 1 7.98 1 9 1 C9.08131463 2.43655854 9.13933559 3.8744483 9.1875 5.3125 C9.22230469 6.11300781 9.25710937 6.91351563 9.29296875 7.73828125 C9 10 9 10 7.6484375 11.76953125 C6 13 6 13 3.4375 13.375 C2.633125 13.25125 1.82875 13.1275 1 13 C-1.11295256 9.83057116 -1.25250929 9.00370047 -1.1875 5.375 C-1.17783203 4.18003906 -1.17783203 4.18003906 -1.16796875 2.9609375 C-1 1 -1 1 0 0 Z " fill="#99865D" transform="translate(145,60)"/>
<path d="M0 0 C2.33944736 0.28730055 4.6739143 0.61936779 7 1 C6.96744792 2.98567708 6.93489583 4.97135417 6.90234375 6.95703125 C6.91736783 9.20305461 6.91736783 9.20305461 8 12 C5.83125748 11.49396008 4.00032373 11.00016187 2 10 C1.67 10.66 1.34 11.32 1 12 C0.34 12 -0.32 12 -1 12 C-1.02687279 10.18757948 -1.04633715 8.37504767 -1.0625 6.5625 C-1.07410156 5.55316406 -1.08570313 4.54382813 -1.09765625 3.50390625 C-1 1 -1 1 0 0 Z M1 3 C1.33 3.99 1.66 4.98 2 6 C2.66 6 3.32 6 4 6 C4.33 5.01 4.66 4.02 5 3 C3.68 3 2.36 3 1 3 Z " fill="#9A8657" transform="translate(160,60)"/>
<path d="M0 0 C4 2 4 2 4.75 4.125 C4.8325 4.74375 4.915 5.3625 5 6 C5.66 6 6.32 6 7 6 C7 4.35 7 2.7 7 1 C7.66 1 8.32 1 9 1 C9 4.63 9 8.26 9 12 C8.01 12 7.02 12 6 12 C4.3125 9.5 4.3125 9.5 3 7 C2.67 8.65 2.34 10.3 2 12 C1.34 12 0.68 12 0 12 C0 8.04 0 4.08 0 0 Z " fill="#968257" transform="translate(186,60)"/>
<path d="M0 0 C1.134375 0.020625 2.26875 0.04125 3.4375 0.0625 C3.4375 1.0525 3.4375 2.0425 3.4375 3.0625 C1.7875 3.0625 0.1375 3.0625 -1.5625 3.0625 C-1.5625 3.7225 -1.5625 4.3825 -1.5625 5.0625 C-0.2425 5.0625 1.0775 5.0625 2.4375 5.0625 C2.4375 5.7225 2.4375 6.3825 2.4375 7.0625 C1.1175 7.0625 -0.2025 7.0625 -1.5625 7.0625 C-1.5625 8.0525 -1.5625 9.0425 -1.5625 10.0625 C0.0875 10.0625 1.7375 10.0625 3.4375 10.0625 C3.4375 10.7225 3.4375 11.3825 3.4375 12.0625 C-2.3125 13.1875 -2.3125 13.1875 -4.5625 12.0625 C-4.58937279 10.25007948 -4.60883715 8.43754767 -4.625 6.625 C-4.63660156 5.61566406 -4.64820312 4.60632813 -4.66015625 3.56640625 C-4.50618986 -0.38129207 -4.09874205 0.07190776 0 0 Z " fill="#97875D" transform="translate(101.5625,59.9375)"/>
<path d="M0 0 C0.66 0 1.32 0 2 0 C2.6708712 1.6232687 3.33657029 3.24867578 4 4.875 C4.556875 6.23238281 4.556875 6.23238281 5.125 7.6171875 C6 10 6 10 6 12 C5.01 12 4.02 12 3 12 C3 11.34 3 10.68 3 10 C1.68 9.67 0.36 9.34 -1 9 C-1.33 10.32 -1.66 11.64 -2 13 C-2.99 12.67 -3.98 12.34 -5 12 C-3.35 8.04 -1.7 4.08 0 0 Z " fill="#9B8555" transform="translate(135,60)"/>
<path d="M0 0 C0 0.66 0 1.32 0 2 C-1.65 2 -3.3 2 -5 2 C-2.525 3.98 -2.525 3.98 0 6 C-0.875 10.875 -0.875 10.875 -2 12 C-3.66617115 12.04063832 -5.33388095 12.042721 -7 12 C-7.33 10.68 -7.66 9.36 -8 8 C-5.525 8.495 -5.525 8.495 -3 9 C-3 8.34 -3 7.68 -3 7 C-5.475 6.01 -5.475 6.01 -8 5 C-8 3.35 -8 1.7 -8 0 C-5.13822943 -1.43088528 -3.06624227 -0.59991697 0 0 Z " fill="#948157" transform="translate(117,61)"/>
<path d="M0 0 C0.99 0.33 1.98 0.66 3 1 C3.94921875 2.99609375 3.94921875 2.99609375 4.6875 5.4375 C5.06455078 6.64212891 5.06455078 6.64212891 5.44921875 7.87109375 C6 10 6 10 6 12 C5.01 11.67 4.02 11.34 3 11 C3 10.34 3 9.68 3 9 C1.68 9 0.36 9 -1 9 C-1 9.99 -1 10.98 -1 12 C-1.99 12 -2.98 12 -4 12 C-3.52494322 10.18641846 -3.04483958 8.37415821 -2.5625 6.5625 C-2.29566406 5.55316406 -2.02882812 4.54382813 -1.75390625 3.50390625 C-1 1 -1 1 0 0 Z " fill="#978558" transform="translate(175,60)"/>
<path d="M0 0 C2.64 0 5.28 0 8 0 C8 0.99 8 1.98 8 3 C7.01 3 6.02 3 5 3 C5 5.97 5 8.94 5 12 C4.01 12 3.02 12 2 12 C2 9.03 2 6.06 2 3 C1.01 3 0.02 3 -1 3 C-0.67 2.01 -0.34 1.02 0 0 Z " fill="#95835D" transform="translate(121,60)"/>
<path d="M0 0 C2.64 0 5.28 0 8 0 C8.33 0.99 8.66 1.98 9 3 C8.01 3 7.02 3 6 3 C6 5.97 6 8.94 6 12 C5.34 12 4.68 12 4 12 C4 9.03 4 6.06 4 3 C2.68 3 1.36 3 0 3 C0 2.01 0 1.02 0 0 Z " fill="#938259" transform="translate(199,60)"/>
<path d="M0 0 C2.31 0.33 4.62 0.66 7 1 C6.34 2.32 5.68 3.64 5 5 C3.35 5 1.7 5 0 5 C0 3.35 0 1.7 0 0 Z " fill="#9C8E67" transform="translate(26,35)"/>
<path d="M0 0 C2.475 0.99 2.475 0.99 5 2 C5 2.66 5 3.32 5 4 C4.01 4.495 4.01 4.495 3 5 C2.34786708 7.02463255 2.34786708 7.02463255 2 9 C1.34 9 0.68 9 0 9 C0 6.03 0 3.06 0 0 Z " fill="#9C895C" transform="translate(85,63)"/>
<path d="M0 0 C0.66 0 1.32 0 2 0 C2.66 1.65 3.32 3.3 4 5 C3.34 5 2.68 5 2 5 C2 5.66 2 6.32 2 7 C0.68 6.67 -0.64 6.34 -2 6 C-1.34 4.02 -0.68 2.04 0 0 Z " fill="#92815A" transform="translate(135,60)"/>
</svg>
